<?xml version="1.0" encoding="utf-8"?>
<!-- Generator: Adobe Illustrator 23.1.1, SVG Export Plug-In . SVG Version: 6.00 Build 0)  -->
<svg version="1.1" id="Laag_1" xmlns="http://www.w3.org/2000/svg" xmlns:xlink="http://www.w3.org/1999/xlink" x="0px" y="0px"
	 viewBox="0 0 109 41" style="enable-background:new 0 0 109 41;" xml:space="preserve">
<style type="text/css">
	.st0{fill:none;stroke:#F5EA61;stroke-width:0.8072;stroke-miterlimit:10;}
	.st1{fill:url(#SVGID_1_);}
	.st2{fill:url(#SVGID_2_);}
	.st3{fill:url(#SVGID_3_);}
	.st4{fill:#F5EA61;}
	.st5{fill:#F5D93F;}
	.st6{fill:url(#SVGID_4_);}
	.st7{fill:url(#SVGID_5_);}
	.st8{fill:#636569;}
</style>
<g>
	<path class="st0" d="M22.88,23.03"/>
	<g>
		<linearGradient id="SVGID_1_" gradientUnits="userSpaceOnUse" x1="12.349" y1="16.8299" x2="22.1641" y2="16.8299">
			<stop  offset="0" style="stop-color:#F5EA61"/>
			<stop  offset="0.3701" style="stop-color:#F5E85E"/>
			<stop  offset="0.6672" style="stop-color:#F6E354"/>
			<stop  offset="0.9383" style="stop-color:#F7DB43"/>
			<stop  offset="1" style="stop-color:#F7D83E"/>
		</linearGradient>
		<polygon class="st1" points="17.26,19.28 22.16,14.38 12.35,14.38 		"/>
	</g>
	<g>
		<linearGradient id="SVGID_2_" gradientUnits="userSpaceOnUse" x1="23.5754" y1="24.1699" x2="9.9116" y2="24.1699">
			<stop  offset="0" style="stop-color:#F5EA61"/>
			<stop  offset="1" style="stop-color:#F7D83E"/>
		</linearGradient>
		<polygon class="st2" points="9.91,26.63 18.67,26.63 23.58,21.72 14.82,21.71 		"/>
	</g>
	<g>
		<linearGradient id="SVGID_3_" gradientUnits="userSpaceOnUse" x1="18.667" y1="24.1721" x2="28.483" y2="24.1721">
			<stop  offset="0" style="stop-color:#F5EA61"/>
			<stop  offset="0.0617" style="stop-color:#F5E75C"/>
			<stop  offset="0.3328" style="stop-color:#F6DF4B"/>
			<stop  offset="0.6299" style="stop-color:#F7DA41"/>
			<stop  offset="1" style="stop-color:#F7D83E"/>
		</linearGradient>
		<polygon class="st3" points="23.58,21.72 18.67,26.63 28.48,26.63 		"/>
	</g>
	<g>
		<polygon class="st4" points="21.63,5.1 26.54,10 22.16,14.37 12.35,14.37 		"/>
	</g>
	<g>
		
			<rect x="5.94" y="17.03" transform="matrix(0.7071 -0.7071 0.7071 0.7071 -11.2353 13.8744)" class="st4" width="10.39" height="6.94"/>
	</g>
	<g>
		<polygon class="st5" points="17.26,19.29 17.26,19.28 22.16,14.37 30.92,14.37 35.83,19.29 		"/>
	</g>
	<g>
		<linearGradient id="SVGID_4_" gradientUnits="userSpaceOnUse" x1="14.2885" y1="31.2629" x2="28.483" y2="31.2629">
			<stop  offset="0" style="stop-color:#F7D83E"/>
			<stop  offset="1" style="stop-color:#F7D83E"/>
		</linearGradient>
		<polygon class="st6" points="19.2,35.9 14.29,31 18.67,26.63 28.48,26.63 		"/>
	</g>
	<g>
		<linearGradient id="SVGID_5_" gradientUnits="userSpaceOnUse" x1="29.7027" y1="26.6247" x2="29.7027" y2="19.2865">
			<stop  offset="0" style="stop-color:#F7D83E"/>
			<stop  offset="0.2996" style="stop-color:#F4D539"/>
			<stop  offset="0.6422" style="stop-color:#ECCD2B"/>
			<stop  offset="1" style="stop-color:#DFBF15"/>
		</linearGradient>
		<polygon class="st7" points="35.83,19.29 26.01,19.29 23.58,21.72 28.48,26.62 		"/>
	</g>
	<path class="st8" d="M104,14.4v0.27v0.5v0.05l-0.01,0.04l-4.58,13.22l-0.06,0.19h-0.2H98.7h-0.38l0.12-0.36l4.55-12.98h-6.38h-0.27
		v-0.27v-0.37V14.4h0.27h7.11H104z M56.43,22.16c-0.2-0.59-0.49-1.1-0.87-1.55c-0.38-0.45-0.84-0.8-1.37-1.06
		c-0.54-0.26-1.14-0.39-1.81-0.39c-0.68,0-1.26,0.13-1.73,0.39c-0.47,0.26-0.84,0.55-1.1,0.85h-0.04v-6h-3.05v14.27h2.8v-1.21h0.04
		c0.3,0.47,0.72,0.83,1.27,1.09c0.55,0.25,1.14,0.38,1.75,0.38c0.69,0,1.31-0.14,1.86-0.41c0.54-0.27,1.01-0.63,1.38-1.09
		c0.38-0.45,0.67-0.97,0.86-1.57c0.2-0.59,0.3-1.21,0.3-1.86C56.74,23.36,56.63,22.74,56.43,22.16z M53.66,24.89
		c-0.09,0.29-0.23,0.55-0.42,0.77c-0.19,0.22-0.41,0.4-0.69,0.54c-0.27,0.14-0.59,0.2-0.95,0.2c-0.35,0-0.66-0.07-0.93-0.2
		c-0.27-0.14-0.5-0.32-0.7-0.54c-0.19-0.22-0.34-0.48-0.45-0.76c-0.11-0.28-0.16-0.58-0.16-0.87c0-0.3,0.05-0.59,0.16-0.87
		c0.1-0.28,0.25-0.54,0.45-0.76c0.19-0.22,0.42-0.4,0.7-0.54c0.27-0.14,0.58-0.2,0.93-0.2c0.36,0,0.67,0.07,0.95,0.2
		c0.27,0.14,0.5,0.31,0.69,0.53c0.19,0.22,0.33,0.47,0.42,0.75c0.09,0.29,0.14,0.58,0.14,0.87C53.8,24.3,53.76,24.6,53.66,24.89z
		 M67.96,21.96c-0.27-0.61-0.64-1.12-1.11-1.54c-0.47-0.42-1.02-0.74-1.63-0.97c-0.62-0.22-1.28-0.33-1.99-0.33
		c-0.69,0-1.35,0.11-1.98,0.33c-0.63,0.22-1.17,0.54-1.63,0.97c-0.46,0.42-0.83,0.94-1.1,1.54c-0.27,0.61-0.41,1.29-0.41,2.04
		c0,0.76,0.14,1.44,0.41,2.05c0.27,0.61,0.64,1.13,1.1,1.56c0.46,0.43,1.01,0.76,1.63,0.99c0.62,0.24,1.28,0.35,1.98,0.35
		c0.71,0,1.37-0.12,1.99-0.35c0.62-0.24,1.16-0.57,1.63-0.99c0.47-0.43,0.84-0.95,1.11-1.56c0.27-0.61,0.41-1.3,0.41-2.05
		C68.37,23.25,68.23,22.57,67.96,21.96z M65.29,24.88c-0.09,0.29-0.23,0.54-0.42,0.77c-0.19,0.23-0.41,0.41-0.69,0.55
		c-0.27,0.14-0.59,0.2-0.95,0.2c-0.36,0-0.67-0.07-0.95-0.2c-0.27-0.14-0.5-0.32-0.69-0.55c-0.19-0.23-0.32-0.49-0.42-0.77
		c-0.09-0.28-0.14-0.58-0.14-0.87c0-0.3,0.05-0.59,0.14-0.87c0.09-0.28,0.23-0.54,0.41-0.75c0.18-0.22,0.4-0.39,0.68-0.53
		c0.27-0.14,0.59-0.2,0.95-0.2c0.36,0,0.67,0.07,0.95,0.2c0.27,0.14,0.5,0.31,0.69,0.53c0.19,0.22,0.33,0.47,0.43,0.75
		c0.1,0.29,0.15,0.58,0.15,0.87C65.43,24.3,65.39,24.59,65.29,24.88z M78.8,28.67v-9.25h-3.04v4.99c0,0.53-0.14,1-0.42,1.39
		c-0.28,0.4-0.68,0.59-1.22,0.59c-0.29,0-0.51-0.05-0.69-0.16c-0.17-0.11-0.31-0.25-0.42-0.44c-0.11-0.19-0.18-0.4-0.21-0.63
		c-0.04-0.24-0.06-0.48-0.06-0.74v-5.01h-3.06v5.72c0,0.47,0.06,0.93,0.18,1.38c0.12,0.45,0.31,0.85,0.58,1.21
		c0.27,0.35,0.61,0.64,1.04,0.86c0.43,0.22,0.95,0.33,1.57,0.33c0.32,0,0.63-0.04,0.92-0.13c0.29-0.09,0.56-0.2,0.8-0.33
		c0.24-0.14,0.45-0.3,0.63-0.48c0.18-0.19,0.33-0.38,0.44-0.59h0.04v1.28H78.8z M96.34,19.42h-3.16l-1.61,5.85h-0.04l-1.71-5.85
		h-3.06l-1.65,5.85h-0.06l-1.6-5.85h-3.29l3.19,9.25h3.06l1.78-5.76h0.04l1.82,5.76h3.06L96.34,19.42z"/>
</g>
</svg>
